<?xml version="1.0" standalone="no"?>
<svg viewBox="0 0 200 200" xmlns="http://www.w3.org/2000/svg">
  <path fill="#e6a1a1" fill-opacity="0.4" d="M25.3,-42.1C34.6,-38.4,45.3,-35.4,50.4,-28.5C55.4,-21.6,54.8,-10.8,50.3,-2.6C45.8,5.6,37.3,11.1,31.5,16.7C25.7,22.2,22.4,27.8,17.6,34.6C12.8,41.4,6.4,49.4,-3.7,55.9C-13.8,62.3,-27.7,67.1,-37.3,63C-46.8,59,-52.2,46.1,-61.7,34.1C-71.2,22.2,-84.8,11.1,-89.4,-2.6C-94,-16.4,-89.5,-32.7,-78.6,-42.3C-67.7,-51.8,-50.4,-54.6,-36.2,-55.5C-22.1,-56.5,-11,-55.6,-1.5,-53C8,-50.3,15.9,-45.9,25.3,-42.1Z" transform="translate(100 100)" />
</svg>
