<?xml version="1.0" standalone="no"?>
<svg viewBox="0 0 200 200" xmlns="http://www.w3.org/2000/svg">
  <path fill="#9EC7EB" fill-opacity="0.4" d="M35.5,-62.4C45.3,-55.8,52.1,-44.9,57.2,-33.8C62.3,-22.7,65.7,-11.3,61.2,-2.6C56.7,6.1,44.3,12.3,37.9,21.2C31.6,30.1,31.2,41.8,25.9,47.6C20.6,53.5,10.3,53.4,1.4,51C-7.5,48.6,-15.1,43.9,-23.5,39.9C-31.9,35.9,-41.2,32.5,-43.2,25.9C-45.2,19.4,-40,9.7,-42,-1.2C-44,-12,-53.3,-24.1,-51.5,-31C-49.7,-38,-37,-40,-26.5,-46.2C-16.1,-52.4,-8.1,-63,2.4,-67.1C12.8,-71.2,25.7,-69,35.5,-62.4Z" transform="translate(100 100)" />
</svg>
