<?xml version="1.0" standalone="no"?>
<svg viewBox="0 0 200 200" xmlns="http://www.w3.org/2000/svg">
  <path fill="#e6a1a1" fill-opacity="0.4" d="M40,-55.1C51.9,-46.4,61.7,-34.8,67.9,-20.9C74,-6.9,76.5,9.4,70.6,21.5C64.7,33.7,50.4,41.7,37.3,47.9C24.1,54,12,58.4,0.4,57.7C-11.1,57.1,-22.3,51.6,-34.1,45C-45.9,38.3,-58.3,30.7,-58.9,21C-59.5,11.3,-48.3,-0.3,-43.5,-13.8C-38.7,-27.3,-40.4,-42.7,-34.2,-53.2C-28.1,-63.8,-14,-69.6,0,-69.6C14,-69.6,28.1,-63.8,40,-55.1Z" transform="translate(100 100)" />
</svg>
